<svg xmlns="http://www.w3.org/2000/svg" width="128" height="128" viewBox="0 0 128 128">
  <g id="Grupo_1181695" data-name="Grupo 1181695" transform="translate(-72.746 -7992)">
    <g id="Elipse_13628" data-name="Elipse 13628" transform="translate(72.746 7992)" fill="#f6f0e8" stroke="#ffc0ac" stroke-width="6">
      <circle cx="64" cy="64" r="64" stroke="none"/>
      <circle cx="64" cy="64" r="61" fill="none"/>
    </g>
    <g id="Grupo_1183775" data-name="Grupo 1183775" transform="translate(16.995 8014.233)">
      <path id="Trazado_1007749" data-name="Trazado 1007749" d="M201.967,61.982l-.732-9.09c-3.6-1.657-7.372-5.861-10.221-8.607-3.735,2.323-8.28,8.431-12.67,8.973v7.672a12.8,12.8,0,0,0,11.043,12.724C195.612,72.852,201.967,68.425,201.967,61.982Z" transform="translate(-71.263 -37.061)" fill="#e8ad8c"/>
      <path id="Trazado_1007750" data-name="Trazado 1007750" d="M257.065,105.566a12.672,12.672,0,0,1-11.033,12.565,12.67,12.67,0,0,0,14.3-12.565V101.34c-.493-.17-.8-3.7-1.286-3.894-.608-.24-1.386,2.858-1.977,2.585Z" transform="translate(-127.907 -81.537)" fill="#e19974"/>
      <path id="Trazado_1007751" data-name="Trazado 1007751" d="M265.219,37.161c0-2.99-2.582-6.866-4.315-9.033L258.171,30.3c-1.657,1.657-2.285,3.864-4.243,5.081a35.332,35.332,0,0,0,9.745,6.653Z" transform="translate(-134.515 -23.539)" fill="#99e6fc"/>
      <path id="Trazado_1007752" data-name="Trazado 1007752" d="M295.094,25.551l-2.3-.185.635,1.849a12.616,12.616,0,0,1,2.768,7.905v4.6q1.593.733,3.263,1.309V35.121a12.641,12.641,0,0,0-4.367-9.57Z" transform="translate(-167.04 -21.228)" fill="#62dbfb"/>
      <path id="Trazado_1007753" data-name="Trazado 1007753" d="M115.315,293.841l.425-1.746c0-4.956,2.8-8.222,7.754-8.222l13.659.313c.45,0,2.166-.627,2.166-1.078l-.143-11.9c0-1.8.873-1.792,2.675-1.792l5.438-1.471c.45,0,2.738.745,2.738.294l-.5-4.735c0-4.048-4.716-7.5-8.764-7.5H111.293a10.6,10.6,0,0,0-10.6,10.6V293.28l13.016,1.432C114.155,294.712,115.315,294.291,115.315,293.841Z" transform="translate(-6.276 -214.233)" fill="#e8ad8c"/>
      <path id="Trazado_1007754" data-name="Trazado 1007754" d="M151.366,271.2v-4.6a10.6,10.6,0,0,0-10.6-10.6,7.35,7.35,0,0,1,7.342,7.342v3.783a.816.816,0,0,1-.816.816H141.23a3.263,3.263,0,0,0-3.263,3.263v11.125a.816.816,0,0,1-.816.816H123.492a8.973,8.973,0,0,0-8.973,8.973v.347a.816.816,0,0,1-.816.816H100.687v1.632a1.631,1.631,0,0,0,1.632,1.632h15.464l27.439-5.766Z" transform="translate(-6.276 -214.233)" fill="#e19974"/>
      <path id="Trazado_1007755" data-name="Trazado 1007755" d="M175.445,283.144l-.887-3.583L151,256h-3.114a10.591,10.591,0,0,0-3.471.581l26.563,26.563,3.1,1.333A2.032,2.032,0,0,0,175.445,283.144Z" transform="translate(-42.866 -214.233)" fill="#99e6fc"/>
      <path id="Trazado_1007756" data-name="Trazado 1007756" d="M310.807,403.179a.816.816,0,0,1-.816.816h-2.768l3.263,3.263h3.583v-3.583l-3.263-3.263Z" transform="translate(-179.116 -335.084)" fill="#62dbfb"/>
      <path id="Trazado_1007757" data-name="Trazado 1007757" d="M237.154,368.382l-1.365-19.2h-6.873v15.2H211.179a5.71,5.71,0,0,0-5.71,5.71v1.162l25.637,1.955C233.355,373.219,237.154,370.631,237.154,368.382Z" transform="translate(-93.962 -292.217)" fill="#dff6fd"/>
      <path id="Trazado_1007758" data-name="Trazado 1007758" d="M235.789,349.188v18a4.083,4.083,0,0,1-4.079,4.079H205.469v3.263h26.242a7.342,7.342,0,0,0,7.342-7.342v-18Z" transform="translate(-93.962 -292.218)" fill="#99e6fc"/>
      <path id="Trazado_1007759" data-name="Trazado 1007759" d="M197.651,12.772c-.6-.748-.614-2.1-1.331-2.678-1.832-1.471-4.651-1.682-6.9-1.987a12.672,12.672,0,0,0-11.078,12.571v2.3a30.406,30.406,0,0,0,17.774-8.677Z" transform="translate(-71.262 -6.784)" fill="#dff6fd"/>
      <path id="Trazado_1007760" data-name="Trazado 1007760" d="M254.473,12.264l1.665-1.665a12.62,12.62,0,0,0-8.3-3.1,12.813,12.813,0,0,0-1.592.1A12.687,12.687,0,0,1,254.473,12.264Z" transform="translate(-128.084 -6.276)" fill="#99e6fc"/>
      <path id="Trazado_1007761" data-name="Trazado 1007761" d="M240.867,121.7h.944a3.173,3.173,0,0,0,3.17-3.17v-2.642a1.224,1.224,0,0,0-2.447,0v2.642a.723.723,0,0,1-.723.723h-.944a1.224,1.224,0,1,0,0,2.447Z" transform="translate(-122.561 -95.953)"/>
      <path id="Trazado_1007762" data-name="Trazado 1007762" d="M184.632,37.922h.106A13.893,13.893,0,0,0,198.63,24.029V13.893A13.893,13.893,0,0,0,193.842,3.4l-.008-.007a13.893,13.893,0,0,0-22.991,10.5V23.87a14.011,14.011,0,0,0,13.788,14.052Zm3.876-27.536a31.227,31.227,0,0,0,7.675,4.813v2.844A33.785,33.785,0,0,1,186.376,12Q187.475,11.239,188.508,10.386Zm7.585,2.072a28.76,28.76,0,0,1-5.742-3.72c.316-.306.313-.309,2.709-2.7A11.446,11.446,0,0,1,196.093,12.458ZM184.737,2.447a11.437,11.437,0,0,1,1.217.065l-.561.561a24.639,24.639,0,0,1-1.969,1.769,1.224,1.224,0,1,0,1.534,1.907A27.085,27.085,0,0,0,187.124,4.8l1.63-1.63a11.431,11.431,0,0,1,2.439,1.266c-1.2.931-6.666,8.4-17.9,10.34v-.887a11.476,11.476,0,0,1,.141-1.8,26.264,26.264,0,0,0,6.411-2.119,1.224,1.224,0,1,0-1.06-2.205A23.793,23.793,0,0,1,174.2,9.423a11.463,11.463,0,0,1,10.537-6.976ZM173.291,17.261a31.773,31.773,0,0,0,10.939-3.9,36.254,36.254,0,0,0,11.953,7.3v3.363a11.446,11.446,0,0,1-11.446,11.446h-.087a11.557,11.557,0,0,1-11.359-11.6V17.261Z" transform="translate(-64.986)"/>
      <path id="Trazado_1007763" data-name="Trazado 1007763" d="M134.485,248.5H128.3a1.224,1.224,0,0,0,0,2.447h6.187a9.392,9.392,0,0,1,9.381,9.381V263.7h-7.688v-1.31a1.224,1.224,0,0,0-2.447,0v11.2l-22.646-22.646h11.5a1.224,1.224,0,0,0,0-2.447H105.016a11.842,11.842,0,0,0-11.828,11.828v28.307a2.858,2.858,0,0,0,2.855,2.855h41.705a8.575,8.575,0,0,0,8.565-8.565v-22.6A11.842,11.842,0,0,0,134.485,248.5Zm8.366,37.8-4.943-4.943h5.958v1.571A6.084,6.084,0,0,1,142.851,286.3Zm-16.722-4.943v7.688h-5.154v-7.688Zm2.447,0h5.154v7.688h-5.154Zm7.6-2.448v-5.154h7.688v5.154Zm7.688-12.756v5.155h-7.688v-5.155ZM95.635,288.635V260.328a9.4,9.4,0,0,1,5.612-8.591l16.193,16.193a1.224,1.224,0,0,0,1.731-1.731l-15.2-15.2a9.457,9.457,0,0,1,1.041-.057h2.607l26.107,26.107v1.853h-1.853l-8.624-8.624a1.224,1.224,0,1,0-1.731,1.731l6.893,6.893h-11.2a6.942,6.942,0,0,0-6.934,6.934v3.2h-4.512v-26.65a1.224,1.224,0,1,0-2.447,0v26.65H96.043A.408.408,0,0,1,95.635,288.635Zm17.1-2.794a4.492,4.492,0,0,1,4.487-4.487h1.311v7.688h-5.8Zm23.447,3.2v-5.959l4.943,4.943a6.082,6.082,0,0,1-3.372,1.015h-1.571Z" transform="translate(0 -207.957)"/>
    </g>
  </g>
</svg>
